<svg xmlns="http://www.w3.org/2000/svg" xmlns:xlink="http://www.w3.org/1999/xlink" width="300" zoomAndPan="magnify" viewBox="0 0 224.87999 127.500001" height="170" preserveAspectRatio="xMidYMid meet" version="1.2"><defs><clipPath id="0119afc153"><path d="M 0.378906 0 L 224.382812 0 L 224.382812 127.003906 L 0.378906 127.003906 Z M 0.378906 0 "/></clipPath><clipPath id="7b76199787"><path d="M 49.898438 0.957031 L 174.984375 0.957031 L 174.984375 126.042969 L 49.898438 126.042969 Z M 49.898438 0.957031 "/></clipPath><clipPath id="e1996d8506"><path d="M 112.441406 0.957031 C 77.898438 0.957031 49.898438 28.960938 49.898438 63.5 C 49.898438 98.042969 77.898438 126.042969 112.441406 126.042969 C 146.980469 126.042969 174.984375 98.042969 174.984375 63.5 C 174.984375 28.960938 146.980469 0.957031 112.441406 0.957031 Z M 112.441406 0.957031 "/></clipPath><clipPath id="544c57f244"><path d="M 64.160156 35.222656 L 160.363281 35.222656 L 160.363281 112.4375 L 64.160156 112.4375 Z M 64.160156 35.222656 "/></clipPath></defs><g id="31abd301a4"><g clip-rule="nonzero" clip-path="url(#0119afc153)"><path style=" stroke:none;fill-rule:nonzero;fill:#ffffff;fill-opacity:1;" d="M 0.378906 0 L 224.5 0 L 224.5 127.003906 L 0.378906 127.003906 Z M 0.378906 0 "/><path style=" stroke:none;fill-rule:nonzero;fill:#ffffff;fill-opacity:1;" d="M 0.378906 0 L 224.5 0 L 224.5 127.003906 L 0.378906 127.003906 Z M 0.378906 0 "/></g><g clip-rule="nonzero" clip-path="url(#7b76199787)"><g clip-rule="nonzero" clip-path="url(#e1996d8506)"><path style=" stroke:none;fill-rule:nonzero;fill:#ffffff;fill-opacity:1;" d="M 49.898438 0.957031 L 174.984375 0.957031 L 174.984375 126.042969 L 49.898438 126.042969 Z M 49.898438 0.957031 "/></g></g><path style=" stroke:none;fill-rule:nonzero;fill:#360c8a;fill-opacity:1;" d="M 118.566406 44.597656 L 148.640625 30.265625 L 117.828125 16.28125 C 113.8125 14.449219 109.1875 14.488281 105.171875 16.359375 L 75.46875 30.246094 L 105.539062 44.597656 C 109.675781 46.570312 114.453125 46.570312 118.566406 44.597656 Z M 118.566406 44.597656 "/><g clip-rule="nonzero" clip-path="url(#544c57f244)"><path style=" stroke:none;fill-rule:nonzero;fill:#360c8a;fill-opacity:1;" d="M 154.375 82.355469 C 153.671875 82.257812 152.949219 82.375 152.285156 82.625 L 135.164062 89.394531 L 118.160156 96.121094 C 114.316406 97.644531 110.027344 97.644531 106.183594 96.101562 L 81.144531 86.078125 C 79.390625 85.320312 77.59375 84.597656 75.78125 83.933594 C 75.664062 83.777344 75.585938 83.660156 75.46875 83.503906 C 75.429688 80.578125 75.46875 77.652344 75.429688 74.730469 C 75.507812 74.984375 76.484375 75.332031 77.457031 75.625 L 97.351562 84.402344 C 98.109375 84.753906 98.890625 85.085938 99.652344 85.414062 L 101.09375 86.058594 L 101.09375 86.019531 C 103.609375 87.035156 106.164062 87.933594 108.816406 88.59375 C 113.109375 89.667969 117.378906 88.085938 121.394531 86.703125 C 132.6875 82.746094 142.945312 76.191406 154.042969 71.746094 C 156.714844 70.671875 159.636719 68.9375 160.144531 65.855469 C 160.496094 64.082031 159.890625 62.425781 158.820312 61.117188 C 158.820312 61.097656 158.800781 61.097656 158.78125 61.078125 C 155.992188 57.3125 152.230469 58.386719 151.273438 58.738281 C 151.234375 58.757812 151.195312 58.757812 151.15625 58.777344 C 151.078125 58.796875 151.039062 58.816406 151.039062 58.816406 C 139.140625 64.21875 127.480469 70.28125 115.3125 74.964844 C 113.1875 75.664062 110.902344 75.253906 108.757812 74.863281 C 97.214844 71.0625 86.742188 64.277344 75.195312 60.414062 C 75.292969 57.234375 75.449219 54.058594 75.410156 50.878906 C 76.5625 51.328125 77.65625 51.890625 78.765625 52.417969 C 83.914062 54.933594 89.121094 57.296875 94.328125 59.652344 C 99.066406 61.820312 103.902344 64.667969 109.207031 65.058594 C 119.328125 65.796875 127.792969 60.375 136.566406 56.261719 C 141.636719 53.882812 146.886719 51.835938 151.898438 49.316406 C 155.054688 47.875 159.445312 46.625 160.125 42.609375 C 160.339844 41.265625 160.046875 39.996094 159.445312 38.886719 C 157.824219 35.863281 154.160156 34.574219 150.882812 35.609375 C 148.074219 36.507812 145.519531 38.027344 142.828125 39.15625 C 139.726562 40.464844 136.683594 41.964844 133.605469 43.371094 C 129.488281 45.320312 125.335938 47.171875 121.203125 49.066406 C 119.191406 49.980469 117.164062 51.152344 115.078125 51.777344 C 112.953125 52.398438 110.867188 52.066406 108.738281 51.601562 C 97.839844 47.445312 87.367188 42.082031 76.796875 37.109375 C 74.847656 35.824219 72.214844 35.082031 69.796875 35.257812 C 66.578125 35.511719 64.160156 38.300781 64.160156 41.539062 L 64.488281 86.742188 C 64.511719 89.492188 65.972656 92.027344 68.351562 93.390625 C 71.160156 95.011719 75.292969 97.332031 80.035156 99.808594 C 80.054688 99.828125 80.089844 99.847656 80.132812 99.847656 C 83.328125 101.386719 86.605469 102.792969 89.804688 104.351562 C 93.082031 105.890625 96.335938 107.492188 99.652344 108.933594 C 101.738281 109.753906 103.863281 110.496094 106.007812 111.136719 C 107.960938 111.722656 110.027344 112.386719 112.09375 112.425781 C 114.746094 112.464844 117.359375 111.527344 119.757812 110.496094 C 121.804688 109.597656 123.816406 108.660156 125.84375 107.765625 C 125.863281 107.765625 125.882812 107.746094 125.902344 107.746094 C 128.027344 106.789062 130.171875 105.832031 132.296875 104.878906 C 134.65625 103.824219 136.996094 102.773438 139.355469 101.71875 C 141.601562 100.703125 143.863281 99.710938 146.105469 98.695312 C 147.917969 97.878906 149.75 97.078125 151.566406 96.257812 C 152.636719 95.792969 153.691406 95.304688 154.761719 94.835938 C 154.898438 94.777344 155.054688 94.699219 155.191406 94.640625 L 155.484375 94.503906 L 155.523438 94.542969 C 157.765625 93.371094 159.992188 91.753906 160.300781 89.121094 C 160.632812 84.96875 157.785156 82.839844 154.375 82.355469 Z M 154.375 82.355469 "/></g></g></svg>