<svg xmlns="http://www.w3.org/2000/svg" xmlns:xlink="http://www.w3.org/1999/xlink" width="300" zoomAndPan="magnify" viewBox="0 0 224.87999 127.500001" height="170" preserveAspectRatio="xMidYMid meet" version="1.2"><defs><clipPath id="44cb2f86b1"><path d="M 0.378906 0 L 224.382812 0 L 224.382812 127.003906 L 0.378906 127.003906 Z M 0.378906 0 "/></clipPath><clipPath id="9c733c0b06"><path d="M 48.9375 0 L 175.941406 0 L 175.941406 127.003906 L 48.9375 127.003906 Z M 48.9375 0 "/></clipPath><clipPath id="f388c36d7d"><path d="M 151 32 L 169.78125 32 L 169.78125 71.71875 L 151 71.71875 Z M 151 32 "/></clipPath><clipPath id="8146e5fe09"><path d="M 120.492188 35.992188 L 154.136719 7.894531 L 190.390625 51.304688 L 156.75 79.402344 Z M 120.492188 35.992188 "/></clipPath><clipPath id="966db7ac5b"><path d="M 120.492188 35.992188 L 154.136719 7.894531 L 190.390625 51.304688 L 156.75 79.402344 Z M 120.492188 35.992188 "/></clipPath><clipPath id="63e24e441b"><path d="M 120.492188 35.992188 L 154.136719 7.894531 L 190.390625 51.304688 L 156.75 79.402344 Z M 120.492188 35.992188 "/></clipPath><clipPath id="5b4d8b54db"><path d="M 129.363281 32.234375 L 153.925781 32.234375 L 153.925781 41.65625 L 129.363281 41.65625 Z M 129.363281 32.234375 "/></clipPath><clipPath id="98e7509da4"><path d="M 120.492188 35.992188 L 154.136719 7.894531 L 190.390625 51.304688 L 156.75 79.402344 Z M 120.492188 35.992188 "/></clipPath><clipPath id="4bbc7e151e"><path d="M 120.492188 35.992188 L 154.136719 7.894531 L 190.390625 51.304688 L 156.75 79.402344 Z M 120.492188 35.992188 "/></clipPath><clipPath id="1e91ada5d1"><path d="M 120.492188 35.992188 L 154.136719 7.894531 L 190.390625 51.304688 L 156.75 79.402344 Z M 120.492188 35.992188 "/></clipPath><clipPath id="31d3f32970"><path d="M 55.375 54.929688 L 74 54.929688 L 74 94.726562 L 55.375 94.726562 Z M 55.375 54.929688 "/></clipPath><clipPath id="b88c53f6ed"><path d="M 34.890625 75.003906 L 68.367188 46.707031 L 104.875 89.90625 L 71.398438 118.199219 Z M 34.890625 75.003906 "/></clipPath><clipPath id="9c871b8089"><path d="M 34.890625 75.003906 L 68.367188 46.707031 L 104.875 89.90625 L 71.398438 118.199219 Z M 34.890625 75.003906 "/></clipPath><clipPath id="78725d5ad6"><path d="M 34.890625 75.003906 L 68.367188 46.707031 L 104.875 89.90625 L 71.398438 118.199219 Z M 34.890625 75.003906 "/></clipPath><clipPath id="26dd170d1a"><path d="M 71 84.777344 L 95.785156 84.777344 L 95.785156 94.414062 L 71 94.414062 Z M 71 84.777344 "/></clipPath><clipPath id="65b2af49fd"><path d="M 34.890625 75.003906 L 68.367188 46.707031 L 104.875 89.90625 L 71.398438 118.199219 Z M 34.890625 75.003906 "/></clipPath><clipPath id="2fc85d2f91"><path d="M 34.890625 75.003906 L 68.367188 46.707031 L 104.875 89.90625 L 71.398438 118.199219 Z M 34.890625 75.003906 "/></clipPath><clipPath id="6f13baec1e"><path d="M 34.890625 75.003906 L 68.367188 46.707031 L 104.875 89.90625 L 71.398438 118.199219 Z M 34.890625 75.003906 "/></clipPath></defs><g id="9494c1bf9a"><g clip-rule="nonzero" clip-path="url(#44cb2f86b1)"><path style=" stroke:none;fill-rule:nonzero;fill:#ffffff;fill-opacity:1;" d="M 0.378906 0 L 224.5 0 L 224.5 127.003906 L 0.378906 127.003906 Z M 0.378906 0 "/><path style=" stroke:none;fill-rule:nonzero;fill:#ffffff;fill-opacity:1;" d="M 0.378906 0 L 224.5 0 L 224.5 127.003906 L 0.378906 127.003906 Z M 0.378906 0 "/></g><g clip-rule="nonzero" clip-path="url(#9c733c0b06)"><path style=" stroke:none;fill-rule:nonzero;fill:#ffffff;fill-opacity:1;" d="M 36.238281 -12.699219 L 188.640625 -12.699219 L 188.640625 139.703125 L 36.238281 139.703125 Z M 36.238281 -12.699219 "/><path style=" stroke:none;fill-rule:nonzero;fill:#ffffff;fill-opacity:1;" d="M 36.238281 -12.699219 L 188.640625 -12.699219 L 188.640625 139.703125 L 36.238281 139.703125 Z M 36.238281 -12.699219 "/></g><path style=" stroke:none;fill-rule:nonzero;fill:#ff00ff;fill-opacity:1;" d="M 87.984375 83.316406 L 76.152344 83.316406 L 76.152344 43.421875 L 86.847656 43.421875 C 91.132812 43.421875 94.40625 44.597656 96.664062 46.949219 C 98.921875 49.300781 100.050781 52.433594 100.050781 56.339844 L 100.050781 71.933594 C 100.050781 79.523438 96.027344 83.316406 87.984375 83.316406 Z M 93.789062 72.503906 L 93.789062 55.773438 C 93.789062 53.6875 93.265625 52.160156 92.222656 51.191406 C 91.183594 50.222656 89.578125 49.738281 87.414062 49.738281 L 82.40625 49.738281 L 82.40625 77.570312 L 87.074219 77.570312 C 88.023438 77.570312 88.820312 77.523438 89.464844 77.425781 C 90.109375 77.332031 90.800781 77.132812 91.539062 76.832031 C 92.28125 76.527344 92.84375 76.015625 93.21875 75.296875 C 93.601562 74.574219 93.789062 73.644531 93.789062 72.503906 Z M 93.789062 72.503906 "/><path style=" stroke:none;fill-rule:nonzero;fill:#ff00ff;fill-opacity:1;" d="M 142.046875 83.316406 L 134.707031 83.316406 L 124.75 43.480469 L 131.800781 43.480469 L 138.351562 71.027344 L 144.726562 43.480469 L 151.953125 43.480469 Z M 142.046875 83.316406 "/><path style=" stroke:none;fill-rule:nonzero;fill:#00ffff;fill-opacity:1;" d="M 86.5625 83.390625 L 74.730469 83.390625 L 74.730469 43.5 L 85.425781 43.5 C 89.714844 43.5 92.984375 44.671875 95.246094 47.023438 C 97.5 49.375 98.628906 52.507812 98.628906 56.414062 L 98.628906 72.007812 C 98.628906 79.597656 94.609375 83.390625 86.5625 83.390625 Z M 92.367188 72.578125 L 92.367188 55.847656 C 92.367188 53.761719 91.847656 52.234375 90.804688 51.265625 C 89.761719 50.296875 88.15625 49.8125 85.996094 49.8125 L 80.984375 49.8125 L 80.984375 77.644531 L 85.65625 77.644531 C 86.601562 77.644531 87.398438 77.597656 88.046875 77.503906 C 88.6875 77.40625 89.382812 77.207031 90.121094 76.90625 C 90.859375 76.601562 91.421875 76.089844 91.800781 75.371094 C 92.179688 74.648438 92.367188 73.714844 92.367188 72.578125 Z M 92.367188 72.578125 "/><path style=" stroke:none;fill-rule:nonzero;fill:#00ffff;fill-opacity:1;" d="M 140.628906 83.390625 L 133.285156 83.390625 L 123.328125 43.554688 L 130.382812 43.554688 L 136.929688 71.101562 L 143.304688 43.554688 L 150.53125 43.554688 Z M 140.628906 83.390625 "/><path style=" stroke:none;fill-rule:nonzero;fill:#402e7a;fill-opacity:1;" d="M 87.273438 83.351562 L 75.441406 83.351562 L 75.441406 43.460938 L 86.136719 43.460938 C 90.421875 43.460938 93.695312 44.636719 95.953125 46.988281 C 98.210938 49.339844 99.339844 52.46875 99.339844 56.378906 L 99.339844 71.972656 C 99.339844 79.558594 95.320312 83.351562 87.273438 83.351562 Z M 93.078125 72.539062 L 93.078125 55.808594 C 93.078125 53.722656 92.554688 52.199219 91.515625 51.226562 C 90.472656 50.257812 88.867188 49.777344 86.703125 49.777344 L 81.695312 49.777344 L 81.695312 77.605469 L 86.363281 77.605469 C 87.3125 77.605469 88.109375 77.558594 88.753906 77.464844 C 89.398438 77.367188 90.089844 77.167969 90.828125 76.867188 C 91.570312 76.5625 92.132812 76.050781 92.511719 75.332031 C 92.890625 74.609375 93.078125 73.679688 93.078125 72.539062 Z M 93.078125 72.539062 "/><path style=" stroke:none;fill-rule:nonzero;fill:#402e7a;fill-opacity:1;" d="M 141.339844 83.351562 L 133.996094 83.351562 L 124.039062 43.519531 L 131.09375 43.519531 L 137.640625 71.0625 L 144.015625 43.519531 L 151.242188 43.519531 Z M 141.339844 83.351562 "/><path style=" stroke:none;fill-rule:nonzero;fill:#ff00ff;fill-opacity:1;" d="M 115.6875 49.367188 L 115.289062 76.96875 C 115.972656 76.96875 116.648438 76.980469 117.3125 76.996094 C 117.972656 77.015625 118.628906 77.027344 119.273438 77.027344 L 119.21875 82.492188 C 117.09375 82.492188 115.007812 82.472656 112.957031 82.433594 C 110.90625 82.394531 108.878906 82.453125 106.871094 82.605469 L 106.472656 77.199219 C 107.039062 77.125 107.597656 77.074219 108.148438 77.054688 C 108.699219 77.039062 109.257812 77.027344 109.828125 77.027344 L 110.226562 49.367188 C 109.65625 49.40625 109.097656 49.433594 108.546875 49.453125 C 107.996094 49.472656 107.4375 49.503906 106.871094 49.542969 L 106.472656 44.078125 C 108.671875 43.925781 110.832031 43.859375 112.957031 43.878906 C 115.082031 43.894531 117.1875 43.925781 119.273438 43.964844 L 119.21875 49.425781 C 118.648438 49.425781 118.058594 49.414062 117.453125 49.394531 C 116.84375 49.375 116.257812 49.367188 115.6875 49.367188 Z M 115.6875 49.367188 "/><path style=" stroke:none;fill-rule:nonzero;fill:#00ffff;fill-opacity:1;" d="M 114.269531 49.441406 L 113.871094 77.042969 C 114.550781 77.042969 115.226562 77.054688 115.890625 77.074219 C 116.554688 77.089844 117.207031 77.101562 117.851562 77.101562 L 117.800781 82.566406 C 115.675781 82.566406 113.589844 82.546875 111.539062 82.507812 C 109.488281 82.46875 107.457031 82.527344 105.449219 82.679688 L 105.050781 77.269531 C 105.617188 77.199219 106.175781 77.148438 106.730469 77.132812 C 107.277344 77.113281 107.839844 77.101562 108.410156 77.101562 L 108.808594 49.441406 C 108.238281 49.480469 107.675781 49.507812 107.128906 49.527344 C 106.574219 49.546875 106.015625 49.578125 105.449219 49.617188 L 105.050781 44.148438 C 107.25 44 109.410156 43.933594 111.539062 43.953125 C 113.664062 43.972656 115.765625 44 117.851562 44.039062 L 117.800781 49.5 C 117.230469 49.5 116.640625 49.488281 116.03125 49.46875 C 115.425781 49.453125 114.835938 49.441406 114.269531 49.441406 Z M 114.269531 49.441406 "/><path style=" stroke:none;fill-rule:nonzero;fill:#402e7a;fill-opacity:1;" d="M 114.980469 49.402344 L 114.582031 77.003906 C 115.261719 77.003906 115.9375 77.015625 116.601562 77.035156 C 117.261719 77.054688 117.917969 77.066406 118.5625 77.066406 L 118.507812 82.527344 C 116.386719 82.527344 114.296875 82.511719 112.25 82.46875 C 110.199219 82.433594 108.167969 82.488281 106.160156 82.640625 L 105.761719 77.234375 C 106.328125 77.160156 106.886719 77.113281 107.4375 77.09375 C 107.988281 77.074219 108.550781 77.066406 109.121094 77.066406 L 109.519531 49.402344 C 108.949219 49.445312 108.386719 49.472656 107.835938 49.492188 C 107.285156 49.511719 106.726562 49.539062 106.160156 49.578125 L 105.761719 44.113281 C 107.960938 43.960938 110.121094 43.894531 112.25 43.914062 C 114.371094 43.933594 116.476562 43.960938 118.5625 44.003906 L 118.507812 49.460938 C 117.9375 49.460938 117.347656 49.453125 116.742188 49.433594 C 116.136719 49.414062 115.546875 49.402344 114.980469 49.402344 Z M 114.980469 49.402344 "/><g clip-rule="nonzero" clip-path="url(#f388c36d7d)"><g clip-rule="nonzero" clip-path="url(#8146e5fe09)"><g clip-rule="nonzero" clip-path="url(#966db7ac5b)"><g clip-rule="nonzero" clip-path="url(#63e24e441b)"><path style=" stroke:none;fill-rule:evenodd;fill:#009bfe;fill-opacity:1;" d="M 161.863281 71.484375 C 161.949219 71.230469 162.792969 66.796875 162.835938 66.5625 L 163.792969 61.644531 C 164.230469 59.238281 164.769531 56.699219 165.230469 54.28125 C 165.386719 53.445312 165.546875 52.644531 165.710938 51.808594 C 166.035156 50.152344 166.339844 48.558594 166.667969 46.890625 L 167.632812 41.972656 C 167.722656 41.550781 167.777344 41.160156 167.871094 40.746094 C 168.117188 39.652344 168.335938 38.117188 168.585938 37.054688 C 168.632812 36.851562 168.667969 36.640625 168.710938 36.441406 L 169.304688 33.386719 C 169.339844 33.183594 169.371094 32.976562 169.421875 32.773438 L 169.546875 32.148438 C 169.335938 32.082031 167.875 32.148438 167.597656 32.144531 C 166.941406 32.140625 166.289062 32.167969 165.625 32.167969 C 163.351562 32.175781 161 32.25 158.71875 32.261719 C 157.972656 32.265625 154.34375 32.285156 153.800781 32.332031 C 154.527344 33.324219 154.8125 33.371094 155.175781 34.832031 C 155.386719 35.695312 155.28125 36.40625 155.117188 37.238281 L 154.429688 40.753906 C 154.347656 41.167969 154.273438 41.53125 154.195312 41.953125 L 153.738281 44.296875 C 153.648438 44.699219 153.605469 45.066406 153.515625 45.46875 C 153.265625 46.582031 153.0625 47.996094 152.816406 49.039062 C 152.726562 49.429688 152.675781 49.808594 152.59375 50.210938 C 152.507812 50.613281 152.4375 50.992188 152.359375 51.40625 L 151.902344 53.75 C 151.675781 54.75 151.417969 56.234375 151.210938 57.292969 C 150.910156 58.835938 150.773438 58.207031 152.085938 59.78125 Z M 161.863281 71.484375 "/></g></g></g></g><g clip-rule="nonzero" clip-path="url(#5b4d8b54db)"><g clip-rule="nonzero" clip-path="url(#98e7509da4)"><g clip-rule="nonzero" clip-path="url(#4bbc7e151e)"><g clip-rule="nonzero" clip-path="url(#1e91ada5d1)"><path style=" stroke:none;fill-rule:evenodd;fill:#3a51d6;fill-opacity:1;" d="M 136.875 41.566406 C 137.574219 41.523438 140.183594 41.507812 140.867188 41.507812 C 142.847656 41.503906 144.882812 41.433594 146.863281 41.429688 C 148.15625 41.421875 149.582031 41.367188 150.859375 41.375 C 151.191406 41.378906 151.550781 41.359375 151.875 41.359375 L 152.875 41.332031 L 153.820312 36.527344 C 153.855469 36.175781 153.902344 35.945312 153.867188 35.546875 C 153.804688 34.878906 153.53125 34.113281 152.949219 33.5 C 152.359375 32.871094 151.570312 32.484375 150.875 32.402344 C 150.265625 32.332031 147.957031 32.417969 147.167969 32.417969 C 146.492188 32.417969 145.863281 32.4375 145.195312 32.441406 L 131.410156 32.625 C 131.03125 32.640625 129.671875 32.617188 129.4375 32.660156 Z M 136.875 41.566406 "/></g></g></g></g><g clip-rule="nonzero" clip-path="url(#31d3f32970)"><g clip-rule="nonzero" clip-path="url(#b88c53f6ed)"><g clip-rule="nonzero" clip-path="url(#9c871b8089)"><g clip-rule="nonzero" clip-path="url(#78725d5ad6)"><path style=" stroke:none;fill-rule:evenodd;fill:#ff0000;fill-opacity:1;" d="M 55.5 94.523438 C 55.679688 94.601562 57.171875 94.527344 57.480469 94.523438 C 57.820312 94.519531 58.117188 94.511719 58.449219 94.507812 L 63.390625 94.414062 C 64.050781 94.40625 64.707031 94.398438 65.363281 94.371094 L 69.304688 94.300781 C 69.722656 94.289062 70.992188 94.289062 71.316406 94.246094 C 70.257812 93.140625 69.824219 91.996094 69.796875 90.824219 C 69.785156 90.0625 69.996094 89.175781 70.144531 88.375 C 70.195312 88.09375 70.238281 87.828125 70.300781 87.550781 L 73.683594 69.613281 C 73.710938 69.464844 74.015625 68.078125 73.953125 67.964844 L 62.980469 54.988281 L 60.183594 69.792969 C 60.015625 70.613281 59.890625 71.441406 59.710938 72.261719 L 58.3125 79.691406 C 57.902344 82.066406 57.355469 84.691406 56.917969 87.09375 C 56.554688 89.074219 56.078125 91.328125 55.75 93.277344 Z M 55.5 94.523438 "/></g></g></g></g><g clip-rule="nonzero" clip-path="url(#26dd170d1a)"><g clip-rule="nonzero" clip-path="url(#65b2af49fd)"><g clip-rule="nonzero" clip-path="url(#2fc85d2f91)"><g clip-rule="nonzero" clip-path="url(#6f13baec1e)"><path style=" stroke:none;fill-rule:evenodd;fill:#db0000;fill-opacity:1;" d="M 95.773438 93.78125 L 88.25 84.878906 C 87.894531 84.949219 81.429688 84.976562 80.230469 85.042969 L 78.234375 85.082031 C 77.882812 85.085938 77.574219 85.09375 77.234375 85.097656 C 76.875 85.101562 76.550781 85.101562 76.207031 85.117188 L 72.699219 85.183594 C 72.550781 85.183594 72.3125 85.179688 72.1875 85.207031 L 72 86.15625 C 71.796875 87.335938 71.144531 90.066406 71.222656 91.023438 C 71.277344 91.691406 71.566406 92.449219 72.152344 93.074219 C 73.417969 94.4375 74.765625 94.167969 76 94.167969 L 93.765625 93.832031 C 94.300781 93.808594 95.292969 93.835938 95.773438 93.78125 Z M 95.773438 93.78125 "/></g></g></g></g></g></svg>